<svg xmlns="http://www.w3.org/2000/svg" xmlns:xlink="http://www.w3.org/1999/xlink" width="1080" zoomAndPan="magnify" viewBox="0 0 810 809.999993" height="1080" preserveAspectRatio="xMidYMid meet" version="1.2"><defs><clipPath id="54c931029d"><path d="M 34.011719 277.5 L 447 277.5 L 447 653.605469 L 34.011719 653.605469 Z M 34.011719 277.5 "/></clipPath><clipPath id="cb02406874"><path d="M 240.734375 277.5 C 126.566406 277.5 34.011719 361.695312 34.011719 465.554688 C 34.011719 569.410156 126.566406 653.605469 240.734375 653.605469 C 354.902344 653.605469 447.453125 569.410156 447.453125 465.554688 C 447.453125 361.695312 354.902344 277.5 240.734375 277.5 Z M 240.734375 277.5 "/></clipPath><clipPath id="eba19ded9d"><path d="M 181.324219 156.394531 L 629 156.394531 L 629 550.355469 L 181.324219 550.355469 Z M 181.324219 156.394531 "/></clipPath><clipPath id="f0eef61c6c"><path d="M 405.085938 156.394531 C 281.503906 156.394531 181.324219 244.585938 181.324219 353.375 C 181.324219 462.164062 281.503906 550.355469 405.085938 550.355469 C 528.667969 550.355469 628.851562 462.164062 628.851562 353.375 C 628.851562 244.585938 528.667969 156.394531 405.085938 156.394531 Z M 405.085938 156.394531 "/></clipPath><clipPath id="8377df4b97"><path d="M 212.164062 409.488281 L 628.851562 409.488281 L 628.851562 652.488281 L 212.164062 652.488281 Z M 212.164062 409.488281 "/></clipPath><clipPath id="435579cf9b"><path d="M 432.761719 341.375 L 776 341.375 L 776 653.605469 L 432.761719 653.605469 Z M 432.761719 341.375 "/></clipPath><clipPath id="de5a607647"><path d="M 604.375 341.375 C 509.59375 341.375 432.761719 411.269531 432.761719 497.492188 C 432.761719 583.710938 509.59375 653.605469 604.375 653.605469 C 699.152344 653.605469 775.988281 583.710938 775.988281 497.492188 C 775.988281 411.269531 699.152344 341.375 604.375 341.375 Z M 604.375 341.375 "/></clipPath><clipPath id="da7372a92d"><path d="M 329.851562 233.785156 L 480.148438 233.785156 L 480.148438 384.082031 L 329.851562 384.082031 Z M 329.851562 233.785156 "/></clipPath><clipPath id="72457f6aef"><path d="M 405 233.785156 C 363.496094 233.785156 329.851562 267.429688 329.851562 308.933594 C 329.851562 350.4375 363.496094 384.082031 405 384.082031 C 446.503906 384.082031 480.148438 350.4375 480.148438 308.933594 C 480.148438 267.429688 446.503906 233.785156 405 233.785156 Z M 405 233.785156 "/></clipPath><clipPath id="223c1d5390"><path d="M 329.851562 233.785156 L 479.851562 233.785156 L 479.851562 383.785156 L 329.851562 383.785156 Z M 329.851562 233.785156 "/></clipPath><clipPath id="e3ac54042e"><path d="M 404.851562 233.785156 C 363.429688 233.785156 329.851562 267.363281 329.851562 308.785156 C 329.851562 350.207031 363.429688 383.785156 404.851562 383.785156 C 446.273438 383.785156 479.851562 350.207031 479.851562 308.785156 C 479.851562 267.363281 446.273438 233.785156 404.851562 233.785156 Z M 404.851562 233.785156 "/></clipPath></defs><g id="72019b0903"><g clip-rule="nonzero" clip-path="url(#54c931029d)"><g clip-rule="nonzero" clip-path="url(#cb02406874)"><path style=" stroke:none;fill-rule:nonzero;fill:#ff400d;fill-opacity:1;" d="M 34.011719 277.5 L 446.847656 277.5 L 446.847656 653.605469 L 34.011719 653.605469 Z M 34.011719 277.5 "/></g></g><g clip-rule="nonzero" clip-path="url(#eba19ded9d)"><g clip-rule="nonzero" clip-path="url(#f0eef61c6c)"><path style=" stroke:none;fill-rule:nonzero;fill:#ff400d;fill-opacity:1;" d="M 181.324219 156.394531 L 629.148438 156.394531 L 629.148438 550.355469 L 181.324219 550.355469 Z M 181.324219 156.394531 "/></g></g><g clip-rule="nonzero" clip-path="url(#8377df4b97)"><path style=" stroke:none;fill-rule:nonzero;fill:#ff400d;fill-opacity:1;" d="M 212.164062 409.488281 L 628.871094 409.488281 L 628.871094 652.488281 L 212.164062 652.488281 Z M 212.164062 409.488281 "/></g><g clip-rule="nonzero" clip-path="url(#435579cf9b)"><g clip-rule="nonzero" clip-path="url(#de5a607647)"><path style=" stroke:none;fill-rule:nonzero;fill:#ff400d;fill-opacity:1;" d="M 432.761719 341.375 L 775.484375 341.375 L 775.484375 653.605469 L 432.761719 653.605469 Z M 432.761719 341.375 "/></g></g><g clip-rule="nonzero" clip-path="url(#da7372a92d)"><g clip-rule="nonzero" clip-path="url(#72457f6aef)"><path style=" stroke:none;fill-rule:nonzero;fill:#ff400d;fill-opacity:1;" d="M 329.851562 233.785156 L 480.148438 233.785156 L 480.148438 384.082031 L 329.851562 384.082031 Z M 329.851562 233.785156 "/></g></g><g clip-rule="nonzero" clip-path="url(#223c1d5390)"><g clip-rule="nonzero" clip-path="url(#e3ac54042e)"><path style="fill:none;stroke-width:100;stroke-linecap:butt;stroke-linejoin:miter;stroke:#ffffff;stroke-opacity:1;stroke-miterlimit:4;" d="M 100.19343 -0.00131668 C 44.856391 -0.00131668 -0.00188689 44.856962 -0.00188689 100.194 C -0.00188689 155.531039 44.856391 200.389317 100.19343 200.389317 C 155.530469 200.389317 200.388747 155.531039 200.388747 100.194 C 200.388747 44.856962 155.530469 -0.00131668 100.19343 -0.00131668 Z M 100.19343 -0.00131668 " transform="matrix(0.748538,0,0,0.748538,329.852975,233.786142)"/></g></g><path style="fill:none;stroke-width:46;stroke-linecap:round;stroke-linejoin:miter;stroke:#ffffff;stroke-opacity:1;stroke-miterlimit:4;" d="M 22.999817 23.000789 L 309.451288 23.000246 " transform="matrix(0.500236,-0.557481,0.557481,0.500236,296.547176,588.441134)"/><path style="fill:none;stroke-width:46;stroke-linecap:round;stroke-linejoin:miter;stroke:#ffffff;stroke-opacity:1;stroke-miterlimit:4;" d="M 23.002422 23.000145 L 204.202968 22.999096 " transform="matrix(0.599541,-0.449494,0.449494,0.599541,439.648013,585.921015)"/><path style="fill:none;stroke-width:46;stroke-linecap:round;stroke-linejoin:miter;stroke:#ffffff;stroke-opacity:1;stroke-miterlimit:4;" d="M 22.999626 22.998101 L 200.105379 22.998829 " transform="matrix(0.614152,0.429936,-0.429936,0.614152,462.81322,405.057624)"/><path style="fill:none;stroke-width:46;stroke-linecap:round;stroke-linejoin:miter;stroke:#ffffff;stroke-opacity:1;stroke-miterlimit:4;" d="M 23.000046 23.000903 L 235.33076 23.001478 " transform="matrix(0.610448,-0.434079,0.434079,0.610448,174.108261,502.935163)"/><path style="fill:none;stroke-width:46;stroke-linecap:round;stroke-linejoin:miter;stroke:#ffffff;stroke-opacity:1;stroke-miterlimit:4;" d="M 22.999319 22.999871 L 206.625699 22.999739 " transform="matrix(-0.631185,-0.405099,0.405099,-0.631185,322.137117,610.662301)"/></g></svg>